<?xml version="1.0" encoding="UTF-8" standalone="no"?>
<!-- Created with Inkscape (http://www.inkscape.org/) -->

<svg
   version="1.1"
   id="svg2"
   width="1218.6666"
   height="1218.6666"
   viewBox="0 0 1218.6666 1218.6666"
   xmlns:xlink="http://www.w3.org/1999/xlink"
   xmlns="http://www.w3.org/2000/svg"
   xmlns:svg="http://www.w3.org/2000/svg">
  <defs
     id="defs6">
    <clipPath
       clipPathUnits="userSpaceOnUse"
       id="clipPath16">
      <path
         d="M 0,3190 H 3000 V 0 H 0 Z"
         id="path14" />
    </clipPath>
    <clipPath
       clipPathUnits="userSpaceOnUse"
       id="clipPath2">
      <use
         x="0"
         y="0"
         xlink:href="#g1"
         id="use2" />
    </clipPath>
  </defs>
  <g
     id="g8"
     transform="matrix(1.3333333,0,0,-1.3333333,-1390.6666,2735.9999)">
    <g
       id="g10">
      <g
         id="g12"
         clip-path="url(#clipPath16)">
        <g
           id="g15"
           clip-path="none">
          <g
             id="g14">
            <g
               id="g11"
               clip-path="none">
              <g
                 id="g9">
                <g
                   id="g2"
                   clip-path="url(#clipPath2)">
                  <g
                     id="g1">
                    <g
                       id="g18"
                       transform="translate(1781.947,1138)">
                      <path
                         d="m 0,0 h -563.894 c -96.679,0 -175.053,78.374 -175.053,175.053 v 563.894 c 0,96.679 78.374,175.053 175.053,175.053 H 0 c 96.679,0 175.053,-78.374 175.053,-175.053 V 175.053 C 175.053,78.374 96.679,0 0,0"
                         style="fill:#ffa500;fill-opacity:1;fill-rule:nonzero;stroke:none"
                         id="path20" />
                    </g>
                  </g>
                </g>
                <g
                   id="g22"
                   transform="translate(1596.958,1717.5963)">
                  <path
                     d="M 0,0 H 77.033 C 4.285,87.394 -105.31,143.124 -227.688,143.124 c -82.263,0 -158.74,-25.177 -222.143,-68.246 V 4.89 c 59.7,51.42 137.338,82.553 222.143,82.553 C -140.244,87.443 -60.402,54.325 0,0"
                     style="fill:#ffffff;fill-opacity:1;fill-rule:nonzero;stroke:none"
                     id="path24" />
                </g>
                <g
                   id="g26"
                   transform="translate(1546.5537,1717.5963)">
                  <path
                     d="M 9.7829588,0 C -40.451041,35.248 -101.60304,55.971 -167.50104,55.971 c -87.08,0 -165.882,-36.169 -222.143,-94.294 v -92.746 c 41.373,74.879 119.545,126.759 209.918,131.069 4.043,0.193 8.134,0.29 12.225,0.29 4.091,0 8.159,-0.097 12.201,-0.29 z"
                     style="fill:#ffffff;fill-opacity:1;fill-rule:nonzero;stroke:none"
                     id="path28" />
                </g>
                <g
                   id="g30"
                   transform="translate(1677.9135,1484.5828)">
                  <path
                     d="M 0,0 C -0.702,10.652 -1.937,21.135 -3.705,31.472 H 84.441 C 81.948,50.475 78.098,69.068 72.967,87.153 h -91.56 c -3.461,9.296 -7.335,18.398 -11.645,27.235 -0.702,1.428 -1.404,2.833 -2.105,4.237 -4.721,9.344 -9.903,18.447 -15.543,27.235 h 36.626 c 10.52278289,-0.70112 6.8703728,-0.50348 21.906882,-0.67737 l 40.814024,-1.48234 c -3.47,9.253 -1.018047,0.16433 -1.075606,2.28324 l 0.76517,-1.7294 c 0.278243,-0.62887 -0.791575,2.57501 -1.256585,3.83846 C 49.300072,149.706 48.77,151.159 47.938,152.865 c -0.662,1.357 -1.347,2.701 -2.023,4.049 -1.38,2.747 -2.788,5.478 -4.229,8.189 -0.678,1.274 -1.358,2.546 -2.048,3.811 -0.881,1.613 -1.766,3.224 -2.668,4.824 -0.887,1.572 -1.794,3.132 -2.702,4.691 -1.314,2.259 -2.65,4.504 -4.008,6.734 -0.884,1.452 -1.771,2.902 -2.673,4.342 -0.91,1.453 -1.827,2.9 -2.756,4.341 -0.947,1.468 -1.91,2.925 -2.876,4.38 -0.731,1.101 -1.435,2.221 -2.176,3.314 h -0.023 c 0,0.001 0,0.001 -0.001,0.002 h -113.082 -92.552 c 26.05,-14.43 49.266,-33.337 68.658,-55.682 7.481,-8.594 14.38,-17.697 20.627,-27.235 0.943,-1.404 1.839,-2.809 2.735,-4.237 5.495,-8.74 10.483,-17.842 14.913,-27.235 8.255,-17.552 14.549,-36.217 18.592,-55.681 2.155,-10.265 3.68,-20.772 4.527,-31.472 0.534,-6.706 0.8,-13.485 0.8,-20.312 0,-95.529 -53.115,-178.906 -131.36,-222.144 h 92.745 C -35.515,-186.193 0.654,-107.393 0.654,-20.312 0.654,-13.485 0.435,-6.706 0,0"
                     style="fill:#ffffff;fill-opacity:1;fill-rule:nonzero;stroke:none"
                     id="path32" />
                </g>
                <g
                   id="g34"
                   transform="translate(1279.672,1667.5071)">
                  <path
                     d="m 0,0 c -20.336,-8.982 -39.098,-20.941 -55.681,-35.345 -47.063,-40.744 -76.864,-100.905 -76.864,-167.891 0,-56.287 21.037,-107.731 55.681,-146.902 v 146.902 c 0,29.462 7.697,57.182 21.183,81.198 v -249.089 c 16.583,-14.405 35.345,-26.364 55.681,-35.346 v 343.456 c 7.238,4.648 14.865,8.764 22.805,12.25 v -364.348 c 17.697,-5.593 36.362,-9.03 55.681,-9.975 V -37.161 18.617 C 59.167,17.673 40.502,14.235 22.805,8.643 15.009,6.173 7.383,3.293 0,0"
                     style="fill:#ffffff;fill-opacity:1;fill-rule:nonzero;stroke:none"
                     id="path36" />
                </g>
                <g
                   id="g38"
                   transform="translate(1763.4684,1297.8077)">
                  <path
                     d="m 0,0 h -34.425 c 18.811,40.487 30.96,84.647 35.088,131.094 H 32.271 C 28.471,84.975 17.334,40.866 0,0 m 88.969,186.775 c -10.677,257.295 -223.305,463.291 -483.168,463.291 -80.035,0 -155.592,-19.537 -222.143,-54.108 v -63.864 c 64.808,39.51 140.873,62.291 222.143,62.291 229.165,0 416.81,-181.036 427.438,-407.61 h -31.495 -39.8 -15.979 c 0.412,-6.731 0.606,-13.509 0.606,-20.312 0,-60.426 -15.81,-117.197 -43.528,-166.463 -11.137,-19.876 -24.234,-38.516 -39.026,-55.681 h 69.989 37.428 63.863 c 9.321,17.939 17.528,36.532 24.572,55.681 15.228,41.349 24.937,85.362 28.252,131.094 0.848,11.692 1.284,23.482 1.284,35.369 0,6.803 -0.145,13.581 -0.436,20.312"
                     style="fill:#ffffff;fill-opacity:1;fill-rule:nonzero;stroke:none"
                     id="path40" />
                </g>
              </g>
            </g>
            <use
               x="0"
               y="0"
               xlink:href="#g9"
               id="use11" />
            <g
               id="g42"
               transform="translate(1521.7156,1302.8434)"
               clip-path="none">
              <path
                 d="m 0,0 c 13.703,12.952 25.783,27.623 35.854,43.673 l -38.711,44.787 -64.009,74.105 66.527,66.454 41.422,41.374 C 31.811,286.831 20.481,301.986 7.457,315.47 L -31.932,276.13 -85.628,222.5 v 150.806 c -17.721,5.592 -36.386,9.03 -55.681,9.974 V -60.426 c 19.295,0.944 37.96,4.382 55.681,9.974 V 99.111 l 49.193,-56.939 z"
                 style="fill:#ffffff;fill-opacity:1;fill-rule:nonzero;stroke:none"
                 id="path44" />
            </g>
          </g>
        </g>
        <use
           x="0"
           y="0"
           xlink:href="#g14"
           id="use15" />
      </g>
    </g>
  </g>
</svg>
